<svg xmlns="http://www.w3.org/2000/svg" width="512" height="512" viewBox="0 0 512 512" role="img" aria-label="Etiove favicon concentric rings with coffee cup">
  <rect width="512" height="512" fill="#f7f3ed"/>

  <circle cx="256" cy="256" r="170" fill="none" stroke="#e2d2c2" stroke-width="6"/>
  <circle cx="256" cy="256" r="122" fill="none" stroke="#ceb9a6" stroke-width="6"/>
  <circle cx="256" cy="256" r="76" fill="none" stroke="#8f5e3b" stroke-width="7"/>

  <ellipse cx="256" cy="283" rx="34" ry="9" fill="#d5c6b6" opacity="0.68"/>

  <g transform="translate(216,220)">
    <rect x="0" y="22" width="62" height="26" rx="10" fill="#ffffff" stroke="#775741" stroke-width="3"/>
    <path d="M62 28h8c10 0 13 14 4 20h-12" fill="none" stroke="#775741" stroke-width="3" stroke-linecap="round"/>
    <ellipse cx="31" cy="22" rx="31" ry="7" fill="#ffffff" stroke="#775741" stroke-width="3"/>
    <ellipse cx="31" cy="22" rx="25" ry="4" fill="#4c3629"/>
    <path d="M18 12c-5-8-1-14 1-18" fill="none" stroke="#8e6a54" stroke-width="3" stroke-linecap="round"/>
    <path d="M31 10c-5-9-2-15 0-20" fill="none" stroke="#8e6a54" stroke-width="3" stroke-linecap="round"/>
    <path d="M44 12c-5-8-1-14 1-18" fill="none" stroke="#8e6a54" stroke-width="3" stroke-linecap="round"/>
  </g>
</svg>
